<svg width="909" height="658" viewBox="0 0 909 658" fill="none" xmlns="http://www.w3.org/2000/svg">
<path d="M525 107.2H568.5V184.6L633.6 107.2H685.5L603.3 202L681.3 307H628.5L568.5 226.3V307H525V107.2ZM790.041 310.9C773.441 310.9 758.841 307.4 746.241 300.4C733.641 293.4 723.841 283.6 716.841 271C710.041 258.2 706.641 243.5 706.641 226.9V107.2H750.441V223.6C750.441 238.4 753.941 250.2 760.941 259C768.141 267.6 777.841 271.9 790.041 271.9C802.241 271.9 811.941 267.6 819.141 259C826.341 250.2 829.941 238.4 829.941 223.6V107.2H873.441V226.9C873.441 243.5 869.941 258.2 862.941 271C856.141 283.6 846.441 293.4 833.841 300.4C821.241 307.4 806.641 310.9 790.041 310.9Z" fill="url(#paint0_linear_47_30)"/>
<path d="M564.3 328.2H616.5L690.6 528H645.6L629.4 482.4H550.8L535.5 528H491.1L564.3 328.2ZM616.5 445.2L589.5 368.7L563.4 445.2H616.5ZM713.613 328.2H764.613L847.413 468.3V328.2H887.313V528H836.913L753.513 387V528H713.613V328.2Z" fill="url(#paint1_linear_47_30)"/>
<path d="M252.561 257.731L216.021 294.258L255.481 294.25C255.883 280.488 254.387 267.746 252.561 257.731Z" fill="#30746C"/>
<path d="M147.153 247.969L147.153 325.641L170.798 302.005L170.798 239.38C162.304 241.366 154.418 244.235 147.153 247.969Z" fill="#30746C"/>
<path d="M139.391 370.857L117.25 392.989C126.177 394.617 137.256 395.987 149.266 395.987C179.64 395.988 204.454 387.538 223.115 370.858L139.391 370.857Z" fill="#30746C"/>
<path d="M98.5043 374.268L120.655 352.126L120.656 268.438C91.0966 301.535 93.6393 347.58 98.5043 374.268Z" fill="#30746C"/>
<path d="M201.801 236.011C200.283 236.011 198.785 236.039 197.294 236.082V275.517L233.817 239.009C224.889 237.382 213.81 236.011 201.801 236.011Z" fill="#30746C"/>
<path d="M189.517 320.749L165.887 344.369L243.553 344.37C247.486 336.701 250.253 328.727 252.133 320.737L189.517 320.749Z" fill="#30746C"/>
<path d="M374.982 213.656H351.065V105H0V443.73C0 489.645 37.3674 527 83.2985 527H267.765C313.697 527 351.065 489.645 351.065 443.73V418.342H374.982C414.142 418.342 446 386.494 446 347.349V284.65C446.001 245.504 414.141 213.656 374.982 213.656ZM245.602 386.042C221.76 409.876 188.448 422.475 149.272 422.475C149.269 422.475 149.267 422.475 149.265 422.475C115.091 422.474 88.0512 413.055 86.9162 412.654L80.9518 410.546L78.8429 404.583C78.4909 403.589 70.2216 379.895 69.1362 348.906C67.6606 306.789 80.2235 271.19 105.465 245.957C129.307 222.124 162.62 209.525 201.801 209.525C235.975 209.525 263.016 218.945 264.15 219.347L270.115 221.455L272.223 227.416C272.575 228.41 280.845 252.104 281.93 283.093C283.407 325.211 270.845 360.81 245.602 386.042ZM419.505 347.348C419.505 371.889 399.533 391.855 374.983 391.855H351.066V240.144H374.983C399.533 240.144 419.505 260.11 419.505 284.65V347.348Z" fill="url(#paint2_linear_47_30)"/>
<defs>
<linearGradient id="paint0_linear_47_30" x1="509.441" y1="218.5" x2="895" y2="218.5" gradientUnits="userSpaceOnUse">
<stop stop-color="#530500"/>
<stop offset="0.407042" stop-color="#C5A500"/>
<stop offset="1" stop-color="#661200"/>
</linearGradient>
<linearGradient id="paint1_linear_47_30" x1="494.844" y1="439.5" x2="909" y2="439.5" gradientUnits="userSpaceOnUse">
<stop stop-color="#530500"/>
<stop offset="0.407042" stop-color="#C5A500"/>
<stop offset="1" stop-color="#661200"/>
</linearGradient>
<linearGradient id="paint2_linear_47_30" x1="223" y1="105" x2="-261.687" y2="321.147" gradientUnits="userSpaceOnUse">
<stop stop-color="#AA7B01"/>
<stop offset="0.489583" stop-color="#661200"/>
</linearGradient>
</defs>
</svg>
