<?xml version="1.0" encoding="iso-8859-1"?>
<!-- Uploaded to: SVG Repo, www.svgrepo.com, Generator: SVG Repo Mixer Tools -->
<svg fill="#000000" height="800px" width="800px" version="1.1" id="Layer_1" xmlns="http://www.w3.org/2000/svg" xmlns:xlink="http://www.w3.org/1999/xlink" 
	 viewBox="0 0 511.998 511.998" xml:space="preserve">
<g>
	<g>
		<path d="M289.935,189.083l-41.948,41.948l45.3-0.009C293.748,215.218,292.031,200.584,289.935,189.083z"/>
	</g>
</g>
<g>
	<g>
		<path d="M168.929,177.873l-0.001,89.198l27.144-27.143l0.001-71.919C186.321,170.29,177.268,173.584,168.929,177.873z"/>
	</g>
</g>
<g>
	<g>
		<path d="M160.018,318.997L134.6,344.414c10.249,1.869,22.967,3.442,36.754,3.443c34.869,0.001,63.355-9.703,84.777-28.859
			L160.018,318.997z"/>
	</g>
</g>
<g>
	<g>
		<path d="M113.081,322.915l25.429-25.428l0.001-96.108C104.577,239.388,107.496,292.266,113.081,322.915z"/>
	</g>
</g>
<g>
	<g>
		<path d="M231.663,164.14c-1.742,0-3.462,0.032-5.173,0.081l0,45.288l41.927-41.926C258.168,165.715,245.45,164.14,231.663,164.14z
			"/>
	</g>
</g>
<g>
	<g>
		<path d="M217.562,261.453l-27.127,27.126l89.159,0.001c4.515-8.807,7.691-17.965,9.85-27.141L217.562,261.453z"/>
	</g>
</g>
<g>
	<g>
		<path d="M430.472,138.468h-27.456V13.687H0v388.998c0,52.729,42.897,95.627,95.625,95.627h211.764
			c52.729,0,95.627-42.898,95.627-95.627v-29.156h27.456c44.955,0,81.527-36.574,81.527-81.528v-72.004
			C512,175.042,475.426,138.468,430.472,138.468z M281.946,336.436c-27.37,27.371-65.612,41.839-110.585,41.839
			c-0.003,0-0.005,0-0.008,0c-39.231-0.001-70.272-10.817-71.575-11.278l-6.847-2.421l-2.421-6.848
			c-0.404-1.141-9.897-28.351-11.143-63.939c-1.694-48.367,12.728-89.249,41.705-118.227c27.37-27.37,65.612-41.838,110.591-41.838
			c39.232,0,70.274,10.817,71.576,11.279l6.847,2.421l2.421,6.846c0.404,1.141,9.897,28.351,11.143,63.939
			C325.345,266.577,310.924,307.459,281.946,336.436z M481.583,292c0,28.183-22.927,51.111-51.11,51.111h-27.456V168.886h27.456
			c28.183,0,51.11,22.929,51.11,51.111V292z"/>
	</g>
</g>
</svg>